HIERARCHY
ROOT Hips
{
  OFFSET 69.4229 24.0383 57.6149
  CHANNELS 6 Xposition Yposition Zposition Zrotation Xrotation Yrotation
  JOINT ToSpine
  {
    OFFSET -2.69724 7.43032 -0.144315
    CHANNELS 3 Zrotation Xrotation Yrotation
    JOINT Spine
    {
      OFFSET -0.0310711 10.7595 1.96963
      CHANNELS 3 Zrotation Xrotation Yrotation
      JOINT Spine1
      {
        OFFSET 13.1342 3.43533 0.764692
        CHANNELS 3 Zrotation Xrotation Yrotation
        JOINT Neck
        {
          OFFSET 29.8703 7.82586 -0.130764
          CHANNELS 3 Zrotation Xrotation Yrotation
          JOINT Head
          {
            OFFSET 9.52751 0.295786 -0.907742
            CHANNELS 3 Zrotation Xrotation Yrotation
            End Site
            {
              OFFSET 16.4037 0.713936 2.7358
            }
          }
        }
        JOINT LeftShoulder
        {
          OFFSET 27.5574 4.95586 2.47156
          CHANNELS 3 Zrotation Xrotation Yrotation
          JOINT LeftArm
          {
            OFFSET 1.20734 -0.998971 20.1238
            CHANNELS 3 Zrotation Xrotation Yrotation
            JOINT LeftForeArm
            {
              OFFSET 26.8049 -0.0536703 -0.155908
              CHANNELS 3 Zrotation Xrotation Yrotation
              JOINT LeftHand
              {
                OFFSET 26.6817 0 0.320147
                CHANNELS 3 Zrotation Xrotation Yrotation
                End Site
                {
                  OFFSET 18.6119 0 0.382219
                }
              }
            }
          }
        }
        JOINT RightShoulder
        {
          OFFSET 27.5927 4.71444 -2.65209
          CHANNELS 3 Zrotation Xrotation Yrotation
          JOINT RightArm
          {
            OFFSET 2.83739 -1.17114 -18.7564
            CHANNELS 3 Zrotation Xrotation Yrotation
            JOINT RightForeArm
            {
              OFFSET 28.839 -0.0548439 1.22491
              CHANNELS 3 Zrotation Xrotation Yrotation
              JOINT RightHand
              {
                OFFSET 26.5114 0 -0.101894
                CHANNELS 3 Zrotation Xrotation Yrotation
                End Site
                {
                  OFFSET 18.2168 0 0
                }
              }
            }
          }
        }
      }
    }
  }
  JOINT LeftUpLeg
  {
    OFFSET -4.76168 -1.9167 -10.2353
    CHANNELS 3 Zrotation Xrotation Yrotation
    JOINT LeftLeg
    {
      OFFSET 2.55951 -42.0585 -8.02213
      CHANNELS 3 Zrotation Xrotation Yrotation
      JOINT LeftFoot
      {
        OFFSET 3.16357 -42.5282 -3.95426
        CHANNELS 3 Zrotation Xrotation Yrotation
        JOINT LeftToeBase
        {
          OFFSET 0.346054 -6.02161 12.8035
          CHANNELS 3 Zrotation Xrotation Yrotation
          End Site
          {
            OFFSET 0.134235 -1.35082 5.13018
          }
        }
      }
    }
  }
  JOINT RightUpLeg
  {
    OFFSET -4.94151 -1.41743 10.6446
    CHANNELS 3 Zrotation Xrotation Yrotation
    JOINT RightLeg
    {
      OFFSET -2.56294 -42.0364 -7.94377
      CHANNELS 3 Zrotation Xrotation Yrotation
      JOINT RightFoot
      {
        OFFSET -3.0952 -42.555 -4.02241
        CHANNELS 3 Zrotation Xrotation Yrotation
        JOINT RightToeBase
        {
          OFFSET -0.0828122 -6.13587 12.8035
          CHANNELS 3 Zrotation Xrotation Yrotation
          End Site
          {
            OFFSET -0.131328 -1.35082 5.13018
          }
        }
      }
    }
  }
}
MOTION
Frames:	18
Frame Time:	0.0333333
8.58243 22.365 10.5127 -5.15474 10.0519 -33.4888 -70.1915 0 88.8779 106.313 71.0206 -19.6504 -9.22453 23.6424 -2.30052 -171.884 27.4699 156.011 -137.986 63.9994 -176.64 -0.130057 -21.2217 -20.1051 -84.5605 30.9801 -127.897 60.4872 -30.1865 -105.129 -0.741292 0.0218371 -2.25598 0.130483 -0.972818 -21.5026 -166.06 -53.1465 86.2399 24.8072 -6.70694 75.6696 7.04341 0.760063 11.0471 -31.7508 34.8004 99.6503 -62.2601 84.3577 42.7559 -3.6366 -6.59612 -0.348979 8.39095 -17.857 18.1939 -53.8542 -15.1266 55.2053 3.54265 39.698 17.7724 -3.9361 -3.69454 0.81644 2.13449 -51.8648 -14.4097 
9.23565 21.5271 14.1453 -4.02818 12.5761 -33.6358 -70.1915 0 88.8779 93.4732 70.5907 -11.7613 -7.1219 22.0489 -2.98201 -164.885 26.7438 146.937 -129.837 62.3426 177.541 -0.395843 -21.5392 -22.324 -87.7336 26.0638 -122.048 55.9776 -32.1512 -108.994 -0.539659 0.0149369 -2.3739 0.151932 -0.99212 -14.9201 -162.301 -53.3203 86.8296 26.901 -2.83579 84.2388 5.89327 0.590447 10.0991 -24.2519 39.2973 100.173 -135.853 81.8133 113.949 -2.89467 -7.62637 -0.510518 9.11109 -18.851 18.6033 -55.293 -8.01034 68.7697 3.05283 32.3564 15.6071 -0.891129 0.139462 0.251221 -2.10333 -51.8548 -26.3927 
9.92211 20.5687 17.5745 -1.71614 15.8073 -34.3271 -70.1915 0 88.8779 84.6705 69.4763 -7.91671 -5.92966 20.5146 -3.9145 -159.02 23.7454 143.06 -127.746 60.7797 -179.121 -0.889385 -22.1631 -26.0464 -93.5719 20.4189 -115.391 49.8508 -32.4744 -113.591 -0.150283 0.00174673 -2.04705 0.320138 -0.013115 -5.31005 -155.156 -50.5121 93.9066 26.9977 -0.32495 89.1475 4.759 0.403464 8.33937 -16.3437 42.1425 99.6137 -155.313 74.6024 130.859 -3.28914 -9.43753 -0.683591 9.44935 -19.2897 19.8512 -57.1015 -5.9637 72.9427 2.45183 29.4939 11.6721 -0.313567 3.74876 -0.0914357 -0.164822 -46.7135 -22.3846 
10.5721 19.4819 21.004 0.303231 17.6284 -34.069 -70.1915 0 88.8779 79.9259 69.063 -7.57099 -4.90555 19.3764 -3.10479 -154.412 22.5646 139.766 -126.881 61.0713 -177.708 -1.13636 -21.9421 -28.6345 -100.498 17.7321 -110.969 45.4144 -31.9271 -116.747 0.382448 -0.0134826 -1.71171 0.456069 1.54625 -1.46641 -153.755 -47.6769 91.7597 24.1277 1.74785 93.6585 3.72467 0.307918 7.90107 -6.68605 46.0562 96.1156 -162.242 66.3481 135.497 -1.47487 -10.1415 -0.833571 9.89315 -19.8163 22.0766 -58.9172 -3.36737 74.111 1.52944 27.0497 2.92135 -4.57925 8.5376 0.422829 4.36136 -39.2302 -3.93226 
11.2412 18.2739 24.3591 0.227603 19.2943 -33.4556 -70.1915 0 88.8779 72.2159 68.5854 -3.30358 -4.43929 18.8864 -2.92073 -152.946 21.3824 138.58 -130.11 61.4038 -172.861 -1.20366 -21.7317 -29.6268 -104.765 14.7134 -106.475 40.0068 -29.6932 -119.759 0.655217 -0.0226878 -1.81824 0.434956 2.39226 2.58567 -152.477 -45.6013 88.7349 22.157 3.7136 98.7719 2.7446 0.217565 7.23847 5.87774 49.3342 90.3479 -165.26 58.9729 137.522 -2.27196 -10.9749 -0.885727 11.4414 -21.8289 21.4184 -59.586 -0.759605 76.0346 1.58517 23.5783 -1.3298 -6.36659 13.6364 0.673627 4.44033 -29.7171 5.79919 
12.2021 17.1751 27.2267 1.90513 22.5595 -35.1924 -70.1915 0 88.8779 66.4819 67.3563 -2.94768 -3.68133 17.6523 -3.15226 -152.909 21.0879 134.352 -125.564 59.8926 -179.506 -0.993812 -20.6418 -29.6993 -106.584 11.1508 -104.783 37.7389 -29.8126 -121.919 0.6549 -0.0187091 -1.27843 0.349086 2.21812 5.67363 -151.363 -45.1257 86.2437 19.9363 5.22207 103.79 1.74355 0.13986 6.69738 15.2753 48.0952 87.624 -166.745 52.2562 135 -0.978816 -9.92813 -0.834406 13.9745 -24.5528 25.5895 -61.1314 -1.7257 76.757 2.31281 20.7479 0.11452 -6.47619 18.3336 0.602628 2.69545 -22.9891 -4.14803 
13.1067 16.6491 29.601 2.14759 24.2657 -36.6881 -70.1915 0 88.8779 62.6497 66.583 -2.33592 -3.0895 17.2708 -4.06951 -154.452 21.9947 135.429 -129.737 61.2796 -175.917 -0.533114 -19.0024 -28.0498 -106.274 10.2269 -104.131 36.6734 -30.7804 -123.698 0.43441 -0.0102586 -1.07082 0.341816 2.42255 6.23902 -152.063 -45.6218 81.7204 18.6066 6.54512 108.379 1.00669 0.0962206 6.83448 24.2896 47.7118 84.7397 -167.782 46.3454 135.898 -1.1624 -9.47789 -0.785883 15.8305 -26.455 27.3077 -62.0585 -2.23333 78.9421 2.17527 17.823 1.74956 -5.10813 22.1145 0.089674 2.52382 -20.2841 0.241926 
14.0469 16.4588 31.4828 5.29243 23.8853 -38.791 -70.1915 0 88.8779 72.2613 66.8245 -14.7618 -5.35667 17.004 -3.95145 -151.088 20.7394 133.407 -126.364 60.8892 -176.461 -0.925532 -20.2464 -29.8099 -108.402 5.38089 -101.063 32.1894 -29.4686 -127.197 0.700019 -0.0082119 -0.197246 0.278116 2.16874 8.58527 -149.987 -45.662 82.4525 17.5726 7.50381 112.06 0.166122 0.0350344 5.58735 28.3915 46.7685 82.3607 -168.387 41.9121 137.336 -0.637237 -9.04855 -0.773136 15.9928 -26.3928 29.0068 -66.0838 -3.15356 78.4651 2.05687 16.1956 3.55783 -6.19047 22.1286 0.432708 1.08556 -8.94208 -0.106827 
14.8107 16.4414 32.8654 7.346 23.0611 -39.4648 -70.1915 0 88.8779 81.6784 66.2029 -25.4033 -6.75537 16.355 -3.13582 -152.047 20.8418 134.36 -127.224 60.8062 -175.58 -1.03371 -20.2146 -31.0279 -110.487 2.71264 -98.5535 27.7537 -27.729 -130.658 0.793407 -0.00132592 0.600962 0.31511 1.90862 6.73135 -151.564 -48.8388 78.3878 16.3626 8.5181 116.392 -0.609904 -0.00525068 4.92282 31.8298 45.5603 79.053 -168.702 39.7505 139.611 -0.245883 -8.97435 -0.786479 16.8058 -27.0361 30.5552 -68.4006 -2.8018 78.7471 1.49644 15.7097 3.81465 -5.90538 22.3873 0.335581 -0.668646 -0.529267 4.50219 
15.4963 16.4529 34.0566 8.12924 22.9751 -39.7593 -70.1915 0 88.8779 85.1971 65.4815 -30.5869 -7.32284 15.2667 -1.64761 -153.275 21.2169 136.426 -131.545 61.5733 -171.624 -1.20637 -20.4161 -32.3767 -112.2 0.176854 -95.6337 25.1308 -26.907 -133.133 1.24843 -0.00307953 0.789331 0.34309 1.8705 5.36057 -151.759 -52.1612 76.3203 16.0787 9.53346 119.489 -0.967405 -0.0193201 4.17981 32.5854 44.5073 77.2349 -168.588 40.4136 138.492 0.581846 -8.41476 -0.786224 18.014 -28.2576 30.8223 -69.4129 -1.90518 79.7779 0.918626 14.1512 6.48548 -2.64778 24.6244 -0.825889 0.433472 3.74923 -4.573 
16.3268 16.515 35.1209 7.94178 23.2085 -39.7477 -70.1915 0 88.8779 86.2353 64.8863 -32.718 -7.7762 14.1763 -0.18229 -155.515 21.6617 138.265 -133.714 61.4429 -171.09 -1.49198 -21.0756 -33.7056 -114.93 -3.60069 -92.3231 21.9386 -25.5538 -136.105 1.81103 -0.00921698 0.667873 0.338646 1.46626 4.7178 -152.143 -55.6238 74.8238 18.6795 11.7819 120.754 -0.755863 -0.0109393 4.20243 30.0489 44.4465 78.2908 -168.202 42.9955 136.01 -0.516047 -9.22566 -0.794168 18.679 -28.6723 32.3565 -68.5368 -1.76422 80.17 1.22077 14.1752 7.39048 -0.855069 27.5295 -1.635 1.97687 2.1902 -12.4355 
17.3791 16.4944 35.7042 7.82212 23.674 -39.3603 -70.1915 0 88.8779 86.1756 64.1567 -32.9364 -7.60788 12.7641 1.28855 -153.93 23.0383 139.025 -143.338 64.5891 -161.248 -1.9932 -21.8148 -36.6222 -118.307 -7.30204 -87.1786 22.0802 -27.0834 -137.441 2.44104 -0.0173995 0.609628 0.357644 1.27922 3.01087 -150.913 -60.229 74.0802 19.8499 13.6005 122.706 -0.785545 -0.0117914 4.01002 26.0857 44.1422 81.193 -167.865 45.4879 135.454 -0.442218 -9.3074 -0.804599 19.9103 -29.3655 35.1982 -67.7774 -1.59179 80.5123 1.43197 13.8879 3.59138 -1.54292 28.0575 -1.4177 1.5801 9.82089 -11.2298 
18.3129 16.5264 36.0011 7.51301 23.8683 -39.1529 -70.1915 0 88.8779 85.7435 63.5843 -31.4795 -7.50162 12.2015 1.0452 -161.215 19.1208 135.772 -122.877 51.9406 170.907 -2.27173 -21.8343 -39.0444 -119.116 -9.91235 -83.0518 18.3675 -23.9473 -139.832 2.90756 -0.0251727 0.499697 0.408697 1.9498 2.50516 -149.777 -62.6858 73.6302 22.7108 16.2044 123.335 -0.636845 -0.0057043 4.3152 22.3808 44.4897 84.7992 -167.624 47.6552 137.163 -0.713603 -10.0272 -0.854114 19.1702 -28.9312 33.6493 -67.0679 -1.94886 80.1454 2.0633 13.9895 5.40435 -0.334065 30.3805 -2.03564 2.75263 10.8221 -15.9699 
19.2377 16.5504 36.1423 7.08771 24.1209 -38.731 -70.1915 0 88.8779 84.6496 63.3022 -28.4966 -7.02209 12.194 0.0242835 -153.645 21.4023 138.268 -140.483 62.9182 -163.14 -2.04222 -20.9872 -39.2074 -122.393 -8.50008 -80.0908 17.7074 -22.6482 -139.447 2.39142 -0.0330472 -0.0475828 0.362746 2.17272 5.0308 -144.05 -62.7177 79.5021 25.4753 17.9497 122.55 -0.472295 0.000852198 4.6585 19.5328 44.478 87.6608 -167.379 49.4792 138.005 0.36331 -9.65692 -0.869689 19.4084 -29.1368 33.8079 -66.5033 -2.35598 79.6699 2.53878 13.7241 1.4465 -2.26369 31.0639 -1.32439 0.84279 13.6308 -8.87997 
20.0661 16.7481 36.1333 6.76434 24.0828 -38.4581 -70.1915 0 88.8779 84.4881 63.0484 -26.1353 -7.21096 12.4241 -1.16084 -153.94 18.6934 137.108 -129.656 58.4339 -172.753 -1.33056 -19.1863 -37.0469 -122.906 -2.84547 -76.2875 18.2211 -22.0838 -137.911 1.62934 -0.0355338 -0.848598 0.304994 1.85238 7.14065 -133.509 -63.701 89.966 26.9444 18.9653 122.253 -0.426781 0.0019147 3.98746 17.1123 44.213 89.1014 -167.009 51.1887 136.402 -0.253525 -10.7917 -0.936289 19.8894 -29.5208 34.2688 -66.0208 -2.76714 79.1237 2.60147 14.3188 -0.596635 -6.50956 31.9263 0.330088 -1.10424 9.23021 -0.00679076 
20.9979 17.1322 36.2021 6.00141 24.0032 -38.2777 -70.1915 0 88.8779 83.0135 63.0011 -22.5098 -6.87361 12.2876 -1.08685 -153.49 18.6242 139.715 -131.082 58.8013 -170.525 -0.45039 -16.5312 -34.2076 -123.772 3.78787 -74.0261 19.7565 -21.9384 -135.261 0.911936 -0.0273455 -1.53454 0.299774 2.26586 7.74775 -125.284 -64.9834 98.5177 32.2716 21.4076 119.705 0.151695 0.0269861 4.45755 14.6193 43.7984 90.5469 -166.458 53.3527 133.573 0.758408 -10.7977 -0.971289 21.812 -31.047 35.8057 -64.4869 -3.38626 78.6902 2.29808 16.4276 0.350297 -5.1846 29.5178 -0.123339 -0.6027 11.5187 -2.95686 
21.9421 17.6687 36.259 5.09813 23.4594 -37.9974 -70.1915 0 88.8779 81.8862 63.1497 -18.6324 -6.32992 12.3472 -0.747354 -153.314 18.8413 141.448 -130.941 58.9605 -170.482 0.104828 -14.7927 -30.9045 -128.063 6.45243 -74.5714 21.5131 -21.393 -131.925 0.00273139 -0.00515576 -2.54762 0.314157 2.21715 7.11617 -111.001 -66.569 113.206 37.7554 23.0632 116.523 0.721539 0.0527594 4.6081 12.2032 43.7494 91.8493 -165.826 55.6218 130.918 0.161716 -11.5522 -1.01082 23.4864 -32.5189 36.1966 -62.6315 -3.8158 78.5511 2.03062 18.84 1.84945 -4.62508 28.5944 -0.302025 -0.124839 11.6819 -4.84315 
22.8617 18.4618 36.1654 4.19746 21.989 -37.7549 -70.1915 0 88.8779 82.4563 63.601 -16.029 -6.03466 12.635 0.136623 -152.871 19.5656 143.921 -131.577 59.8828 -169.297 0.522185 -13.4838 -26.0008 -130.63 9.97576 -77.8069 22.7 -20.3227 -128.855 -0.767809 0.0273129 -3.75669 0.318079 2.19566 6.93148 -95.2054 -65.2429 130.513 40.9595 22.5845 113.566 0.827123 0.0566028 4.54726 9.12904 44.5126 93.8708 -165.154 57.9438 129.585 0.731581 -11.662 -1.03457 24.2535 -32.9273 37.4164 -60.6378 -3.91247 79.6928 1.31693 22.2517 2.86823 -3.67756 27.3838 -0.600633 -0.57815 10.6344 -2.73089 
